<svg xmlns="http://www.w3.org/2000/svg" width="250" height="250" fill="none" viewBox="0 0 250 250">
<!-- SVG created with Arrow, by QuiverAI (https://quiver.ai) -->
  <path d="m158.5 30-88.29 63.93 42.7 12.46 37.88 38.96 7.71-115.4z" fill="white"/>
  <path d="m110.6 88.46 15.61 3.46 25.54 34-0.89 19.35-34.6-35.8-4.23-2.78 14.25-14.59-15.68-3.64z" fill="rgba(0,0,0,0.28)"/>
  <path d="m140 66.33-2 39.68-12.1-14.41-15.21-3.28 29.31-21.99z" fill="rgba(0,0,0,0.32)"/>
  <path d="m6.21 151.2v37.68h13.45c9.41 0 14.08-2.38 14.08-10.92 0-3.48-1.12-5.93-3.31-7.6 1.61-1.66 2.39-4.11 2.39-7.23 0-8.08-4.85-11.93-10.87-11.93h-15.74zm7.42 7.95h6.48c2.67 0 3.55 1.73 3.55 4.1 0 2.51-1.05 4-3.12 4h-6.91v-8.1zm0 14.16h6.96c2.58 0 3.39 1.47 3.39 3.92 0 2.68-1.05 4.15-3.58 4.15h-6.77v-8.07z" fill="white"/>
  <path d="m52.52 150.4c-11.44 0-16.03 6.43-16.03 18.05v3.86c0 12.45 4.54 17.09 15.39 17.09s15.34-4.7 15.34-17.15v-3.86c0-12.09-4.54-17.99-14.7-17.99zm-0.64 8.6c6.13 0 7.53 3.74 7.53 9.9v4.34c0 5.68-1.67 8.36-6.89 8.36-5.91 0-7.41-3.11-7.41-9.23v-4.15c0-5.7 1.61-9.22 6.77-9.22z" fill="white"/>
  <path d="m71.68 151.2v37.68h12.88c11.38 0 15.25-5.15 15.25-15.95v-5.15c0-11.08-4.49-16.58-14.75-16.58h-13.38zm8.49 8.07h5.01c6.28 0 6.75 5.04 6.75 10.64v2.26c0 5.6-1.17 9.21-7.02 9.21h-4.74v-22.11z" fill="white"/>
  <path d="m109.7 151.2h-10.43v0.83l11.39 23.87v12.98h8.38v-12.93l12.25-23.92v-0.83h-9.36l-6.82 15.84h-0.42l-4.99-15.84z" fill="white"/>
  <path d="m132.2 151.2v8.48h10.74v29.2h7.83v-29.2h9.76v-8.48h-28.33z" fill="white"/>
  <path d="m164.5 151.2v37.68h7.93v-37.68h-7.93z" fill="white"/>
  <path d="m196.2 172.8-9.3-21.58h-9v37.68h8.1l-0.4-21.16 7.53 15.95h6.87l7.18-16.34-0.28 21.55h6.97v-37.68h-7.82l-9.85 21.58z" fill="white"/>
  <path d="m219.7 151.2v37.68h23.9v-7.5h-14.95v-7.72h12.53v-6.72h-12.53v-7.72h14.55v-8.02h-23.5z" fill="white"/>
  <path d="m57.92 201c-6.28 0-8.88 4.57-8.88 9.02 0 4.72 2.99 8.65 8.68 8.65 3.67 0 5.89-1.41 7.19-3.5l-2.73-2.88c-1.1 1.88-2.57 2.68-4.29 2.68-2.91 0-4.66-2.25-4.66-5.38 0-2.92 1.61-5.01 4.53-5.01 2.01 0 3.35 0.96 4.33 2.4l2.6-2.94c-1.67-2.06-3.77-3.04-6.77-3.04z" fill="white"/>
  <path d="m80.07 201c-6.28 0-8.79 4.67-8.79 9 0 4.77 3 8.67 8.79 8.67 5.8 0 8.58-3.98 8.58-8.75 0-4.59-2.84-8.92-8.58-8.92zm-0.11 3.47c3.57 0 4.76 2.89 4.76 5.48 0 2.89-1.36 5.3-4.65 5.3s-4.73-2.56-4.73-5.45c0-2.79 1.33-5.33 4.62-5.33z" fill="white"/>
  <path d="m97.25 201.5v16.88h3.75l-0.11-10.38 7.5 10.38h3.35v-16.88h-3.54l0.11 10.35-7.39-10.35h-3.67z" fill="white"/>
  <path d="m128.2 201c-6.28 0-8.88 4.57-8.88 9.02 0 4.72 2.99 8.65 8.68 8.65 3.67 0 5.89-1.41 7.19-3.5l-2.73-2.88c-1.1 1.88-2.57 2.68-4.29 2.68-2.91 0-4.66-2.25-4.66-5.38 0-2.92 1.61-5.01 4.53-5.01 2.01 0 3.35 0.96 4.33 2.4l2.6-2.94c-1.67-2.06-3.77-3.04-6.77-3.04z" fill="white"/>
  <path d="m142.8 201.5v16.88h12.79v-3.3h-8.83v-3.73h7.15v-3.07h-7.15v-3.52h8.03v-3.26h-11.99z" fill="white"/>
  <path d="m163.7 201.5v16.88h3.96v-5.4h2.78c5.29 0 6.84-2.98 6.84-5.68 0-3.21-2.06-5.8-6.56-5.8h-7.02zm3.96 3.26h2.81c2.11 0 3.16 1.15 3.16 2.9 0 1.6-1.01 2.37-3.39 2.37h-2.58v-5.27z" fill="white"/>
  <path d="m184 201.5v3.42h4.96v13.46h3.64v-13.46h4.67v-3.42h-13.27z" fill="white"/>
  <defs>
    <linearGradient id="paint0_linear_109_1865" x1="127.8" x2="127.8" y1="30" y2="145.4" gradientUnits="userSpaceOnUse">
      <stop stop-color="#25A8E0" offset="0"/>
      <stop stop-color="#2999DC" offset="1"/>
    </linearGradient>
    <linearGradient id="paint1_linear_109_1865" x1="120.6" x2="142.5" y1="93.13" y2="130.2" gradientUnits="userSpaceOnUse">
      <stop stop-color="#214E6D" offset="0"/>
      <stop stop-color="#1B6996" offset="1"/>
    </linearGradient>
  </defs>
</svg>